<?xml version="1.0" encoding="UTF-8"?>
<!DOCTYPE svg PUBLIC "-//W3C//DTD SVG 1.1//EN" "http://www.w3.org/Graphics/SVG/1.1/DTD/svg11.dtd">
<!-- Creator: CorelDRAW -->
<svg xmlns="http://www.w3.org/2000/svg" xml:space="preserve" width="1.70666in" height="1.70666in" version="1.1" style="shape-rendering:geometricPrecision; text-rendering:geometricPrecision; image-rendering:optimizeQuality; fill-rule:evenodd; clip-rule:evenodd"
viewBox="0 0 1707 1707"
 xmlns:xlink="http://www.w3.org/1999/xlink">
 <defs>
  <style type="text/css">
   <![CDATA[
    .fil0 {fill:black}
   ]]>
  </style>
 </defs>
 <g id="Layer_x0020_1">
  <metadata id="CorelCorpID_0Corel-Layer"/>
  <g id="_538630240">
   <g>
    <path class="fil0" d="M1420 1492c0,0 0,0 0,0l-1133 0c-7,0 -14,-4 -18,-9 -3,-6 -3,-14 0,-20l125 -241 0 -494c0,-254 206,-460 459,-460 254,0 460,206 460,460l0 494 123 238c3,4 4,8 4,12 0,11 -9,20 -20,20zm-1100 -40l1067 0 -112 -215c-2,-3 -2,-6 -2,-10l0 -499c0,-231 -188,-420 -420,-420 -231,0 -419,189 -419,420l0 499c0,4 -1,7 -2,10l-112 215z"/>
   </g>
   <g>
    <path class="fil0" d="M853 1707c-99,0 -182,-103 -187,-234 -1,-11 8,-20 19,-21 11,0 20,8 21,19 4,110 69,196 147,196 79,0 143,-86 148,-196 0,-11 9,-19 21,-19 11,1 19,10 19,21 -6,131 -88,234 -188,234z"/>
   </g>
   <g>
    <path class="fil0" d="M853 308c-85,0 -154,-69 -154,-154 0,-85 69,-154 154,-154 85,0 155,69 155,154 0,85 -70,154 -155,154zm0 -268c-63,0 -114,51 -114,114 0,63 51,114 114,114 63,0 115,-51 115,-114 0,-63 -52,-114 -115,-114z"/>
   </g>
   <g>
    <path class="fil0" d="M1546 718c-2,0 -4,0 -6,-1 -10,-3 -16,-14 -13,-25 37,-119 24,-246 -34,-356 -59,-111 -157,-191 -276,-228 -11,-3 -17,-14 -14,-25 4,-11 15,-16 25,-13 130,39 236,127 300,247 64,120 77,257 37,387 -2,8 -10,14 -19,14z"/>
   </g>
   <g>
    <path class="fil0" d="M1394 672c-2,0 -4,-1 -6,-1 -10,-4 -16,-15 -13,-25 24,-79 16,-163 -22,-236 -39,-73 -104,-126 -183,-150 -10,-3 -16,-15 -13,-25 3,-11 14,-17 25,-13 89,27 162,87 206,170 44,82 53,176 25,265 -2,9 -10,15 -19,15z"/>
   </g>
   <g>
    <path class="fil0" d="M161 718c-9,0 -17,-6 -20,-14 -39,-130 -26,-267 38,-387 63,-120 170,-208 299,-247 11,-3 22,2 25,13 4,11 -2,22 -13,25 -119,37 -218,117 -276,228 -59,110 -71,237 -34,356 3,11 -3,22 -14,25 -2,1 -4,1 -5,1z"/>
   </g>
   <g>
    <path class="fil0" d="M312 672c-8,0 -16,-6 -19,-15 -27,-89 -18,-183 26,-265 43,-83 117,-143 206,-170 10,-4 22,2 25,13 3,10 -3,22 -14,25 -78,24 -143,77 -182,150 -39,73 -47,157 -23,236 4,10 -2,21 -13,25 -2,0 -4,1 -6,1z"/>
   </g>
   <g>
    <path class="fil0" d="M631 1000l-39 0c-11,0 -20,-9 -20,-20 0,-11 9,-20 20,-20l39 0c22,0 40,-18 40,-40 0,-20 -13,-37 -32,-40 -39,-7 -67,-40 -67,-80 0,-44 37,-80 81,-80l38 0c11,0 20,9 20,20 0,11 -9,20 -20,20l-38 0c-22,0 -41,18 -41,40 0,20 15,37 34,40 38,8 65,41 65,80 0,44 -36,80 -80,80z"/>
   </g>
   <g>
    <path class="fil0" d="M853 1000c-45,0 -82,-37 -82,-83l0 -114c0,-46 37,-83 82,-83 46,0 83,37 83,83l0 114c0,46 -37,83 -83,83zm0 -240c-23,0 -42,19 -42,43l0 114c0,24 19,43 42,43l0 0c24,0 43,-19 43,-43l0 -114c0,-24 -19,-43 -43,-43z"/>
   </g>
   <g>
    <path class="fil0" d="M1054 1000l-39 0c-11,0 -20,-9 -20,-20 0,-11 9,-20 20,-20l39 0c22,0 40,-18 40,-40 0,-20 -14,-37 -33,-40 -38,-7 -66,-40 -66,-80 0,-44 36,-80 81,-80l38 0c11,0 20,9 20,20 0,11 -9,20 -20,20l-38 0c-23,0 -41,18 -41,40 0,20 15,37 34,40 38,8 65,41 65,80 0,44 -36,80 -80,80z"/>
   </g>
  </g>
 </g>
</svg>
